<?xml version="1.0" standalone="no"?>
<!DOCTYPE svg PUBLIC "-//W3C//DTD SVG 20010904//EN"
 "http://www.w3.org/TR/2001/REC-SVG-20010904/DTD/svg10.dtd">
<svg version="1.0" xmlns="http://www.w3.org/2000/svg"
 width="589.000000pt" height="304.000000pt" viewBox="0 0 589.000000 304.000000"
 preserveAspectRatio="xMidYMid meet">

<g transform="translate(0.000000,304.000000) scale(0.100000,-0.100000)"
fill="#000000" stroke="none">
<path d="M1620 2150 l0 -140 135 0 135 0 0 140 0 140 -135 0 -135 0 0 -140z"/>
<path d="M1600 1820 l0 -140 135 0 135 0 0 140 0 140 -135 0 -135 0 0 -140z"/>
<path d="M1940 1820 l0 -140 130 0 130 0 0 140 0 140 -130 0 -130 0 0 -140z"/>
<path d="M2510 1707 c-3 -48 -2 -87 3 -87 4 0 7 18 7 40 l0 40 45 0 45 0 0
-40 c0 -22 5 -40 10 -40 6 0 10 35 10 85 0 50 -4 85 -10 85 -5 0 -10 -16 -10
-35 0 -35 0 -35 -44 -35 -44 0 -45 0 -48 38 -2 20 -6 -2 -8 -51z"/>
<path d="M2725 1770 c-12 -13 -18 -36 -18 -65 0 -58 23 -85 74 -85 28 0 42 6
53 22 23 33 21 103 -4 128 -26 26 -81 26 -105 0z m90 -10 c40 -44 12 -130 -42
-130 -17 0 -28 10 -40 34 -35 75 31 152 82 96z"/>
<path d="M2943 1783 c-7 -2 -13 -17 -13 -33 0 -22 8 -34 35 -50 41 -26 46 -57
11 -66 -14 -3 -30 -3 -35 1 -6 3 -11 1 -11 -4 0 -17 66 -13 80 4 19 23 4 58
-35 83 -19 12 -35 26 -35 32 0 14 37 31 54 24 9 -3 16 -1 16 5 0 11 -44 14
-67 4z"/>
<path d="M3100 1705 c0 -50 4 -85 10 -85 6 0 10 16 10 35 0 31 3 35 25 35 30
0 57 37 49 67 -6 21 -30 33 -71 33 -22 0 -23 -3 -23 -85z m54 65 c30 -11 33
-31 10 -54 -28 -28 -44 -20 -44 24 0 45 -1 44 34 30z"/>
<path d="M3274 1705 c0 -49 1 -71 3 -48 2 23 2 64 0 90 -2 26 -3 8 -3 -42z"/>
<path d="M3350 1780 c0 -5 11 -10 25 -10 24 0 25 -2 25 -75 0 -43 4 -75 10
-75 6 0 10 32 10 75 0 68 2 75 20 75 11 0 20 5 20 10 0 6 -25 10 -55 10 -30 0
-55 -4 -55 -10z"/>
<path d="M3561 1768 c-5 -13 -20 -51 -34 -85 -14 -35 -21 -63 -15 -63 5 0 12
9 15 20 4 16 14 20 53 20 39 0 49 -4 53 -20 3 -11 10 -20 16 -20 6 0 0 28 -15
68 -14 37 -28 75 -31 85 -7 24 -32 21 -42 -5z m37 -33 c19 -42 15 -55 -18 -55
-33 0 -35 3 -19 49 13 38 22 39 37 6z"/>
<path d="M3720 1705 l0 -85 48 2 c43 1 44 2 10 5 l-38 4 0 80 c0 46 -4 79 -10
79 -6 0 -10 -35 -10 -85z"/>
<path d="M2535 1485 c-21 -20 -25 -34 -25 -79 0 -48 3 -57 30 -79 16 -14 43
-28 60 -32 38 -8 63 -41 49 -66 -14 -27 -51 -33 -94 -15 -48 20 -45 21 -45
-14 0 -38 27 -53 96 -54 62 0 89 18 104 73 13 46 -3 107 -33 123 -12 7 -42 19
-67 28 -47 16 -61 39 -40 65 14 17 67 20 104 5 24 -9 26 -8 26 20 0 37 -23 50
-90 50 -41 0 -56 -5 -75 -25z"/>
<path d="M3399 1497 c-42 -32 -53 -117 -20 -159 11 -13 38 -30 60 -36 71 -22
91 -59 47 -87 -24 -16 -51 -13 -108 10 -28 11 -25 -51 3 -66 31 -16 112 -16
143 0 48 26 59 137 17 175 -10 9 -41 23 -70 32 -50 14 -52 16 -49 47 3 28 7
32 36 35 19 2 47 -1 63 -7 28 -10 29 -9 29 23 0 26 -5 35 -22 40 -38 10 -112
6 -129 -7z"/>
<path d="M2894 1487 c-5 -13 -10 -14 -26 -6 -22 12 -48 6 -48 -12 0 -9 4 -9
14 0 10 8 16 9 21 1 10 -16 42 -12 49 6 4 9 4 19 1 22 -2 3 -7 -2 -11 -11z"/>
<path d="M4850 1474 c0 -13 3 -14 14 -5 10 8 16 9 21 1 10 -16 45 -12 45 6 0
13 -3 14 -14 5 -10 -8 -16 -9 -21 -1 -10 16 -45 12 -45 -6z"/>
<path d="M3070 1416 c-69 -22 -96 -154 -47 -227 20 -30 28 -34 73 -37 43 -2
53 1 74 23 22 24 25 35 25 110 0 67 -4 87 -18 103 -28 31 -67 41 -107 28z m57
-44 c6 -4 17 -20 22 -35 25 -65 1 -147 -44 -147 -34 0 -55 36 -55 95 0 74 35
114 77 87z"/>
<path d="M4323 1415 c-23 -10 -32 -21 -37 -48 -10 -52 6 -82 56 -102 51 -20
60 -32 46 -58 -10 -19 -49 -20 -89 -3 -11 5 -15 2 -14 -11 2 -35 16 -43 69
-43 61 0 74 10 83 64 8 48 -16 82 -68 97 -46 14 -58 31 -38 55 10 12 24 15 56
10 38 -5 43 -3 43 14 0 13 -9 22 -27 26 -16 3 -33 7 -39 9 -5 1 -24 -3 -41
-10z"/>
<path d="M2821 1373 c-6 -27 -22 -87 -35 -135 l-25 -88 24 0 c17 0 25 6 27 23
3 19 10 22 49 25 43 3 47 1 53 -23 5 -18 13 -25 30 -25 l25 0 -20 68 c-11 37
-27 97 -37 134 -16 66 -18 68 -49 68 -29 0 -32 -3 -42 -47z m68 -106 c1 -25
-2 -28 -26 -25 -30 3 -31 8 -11 83 l11 40 13 -35 c7 -19 13 -48 13 -63z"/>
<path d="M3640 1285 l0 -135 70 0 c68 0 70 1 70 25 0 23 -3 25 -51 25 l-50 0
3 33 c3 30 6 32 46 35 33 3 42 7 42 22 0 15 -9 19 -42 22 -39 3 -43 6 -46 31
-3 26 -2 27 42 27 42 0 46 2 46 25 0 24 -2 25 -65 25 l-65 0 0 -135z"/>
<path d="M3840 1285 l0 -135 60 0 c47 0 64 4 80 20 24 24 26 76 6 106 -10 13
-11 25 -5 35 5 8 9 28 9 46 0 43 -30 63 -97 63 l-53 0 0 -135z m101 79 c17
-21 0 -49 -32 -49 -24 0 -36 23 -25 51 7 19 40 18 57 -2z m4 -134 c0 -32 -2
-35 -30 -35 -28 0 -30 3 -33 38 -3 38 -3 38 30 35 30 -3 33 -6 33 -38z"/>
<path d="M4080 1303 c-18 -65 -35 -126 -38 -135 -8 -30 37 -23 48 7 8 21 16
25 54 25 38 0 45 -3 50 -25 4 -16 13 -25 26 -25 11 0 20 4 20 8 0 11 -28 116
-51 195 -19 62 -23 67 -49 67 -27 0 -28 -4 -60 -117z m79 3 c6 -25 11 -50 11
-55 0 -11 -42 -15 -52 -6 -7 8 13 105 22 105 4 0 13 -20 19 -44z"/>
<path d="M4470 1395 c0 -22 4 -25 35 -25 l35 0 0 -110 0 -110 25 0 25 0 0 110
0 110 35 0 c31 0 35 3 35 25 0 25 0 25 -95 25 -95 0 -95 0 -95 -25z"/>
<path d="M4700 1285 l0 -135 25 0 25 0 0 135 0 135 -25 0 -25 0 0 -135z"/>
<path d="M4831 1303 c-18 -65 -35 -126 -37 -135 -4 -14 1 -18 20 -18 18 0 25
6 28 23 3 19 10 22 49 25 43 3 47 1 53 -23 5 -18 13 -25 31 -25 23 0 23 2 13
32 -6 17 -23 77 -38 132 -25 98 -27 101 -56 104 l-30 3 -33 -118z m77 8 c18
-58 15 -71 -12 -71 -14 0 -27 3 -30 8 -6 10 15 102 24 102 4 0 12 -17 18 -39z"/>
<path d="M5077 1409 c-51 -30 -65 -159 -24 -220 21 -32 27 -34 76 -34 47 0 57
4 74 26 39 53 34 172 -8 215 -26 26 -85 32 -118 13z m85 -46 c37 -42 29 -155
-12 -168 -36 -11 -59 4 -70 46 -18 66 8 139 50 139 9 0 24 -8 32 -17z"/>
<path d="M580 1165 l0 -135 135 0 135 0 0 135 0 135 -135 0 -135 0 0 -135z"/>
<path d="M910 1165 l0 -135 135 0 135 0 0 135 0 135 -135 0 -135 0 0 -135z"/>
<path d="M890 835 l0 -135 135 0 135 0 0 135 0 135 -135 0 -135 0 0 -135z"/>
</g>
</svg>
